<?xml version="1.0" encoding="UTF-8"?>
<!-- Generator: Adobe Illustrator 19.2.0, SVG Export Plug-In . SVG Version: 6.00 Build 0)  -->
<svg version="1.1" xmlns="http://www.w3.org/2000/svg" xmlns:xlink="http://www.w3.org/1999/xlink" x="0px" y="0px" viewBox="0 0 585.9 231.5" style="enable-background:new 0 0 585.9 231.5;" xml:space="preserve">
<style type="text/css">
	.st0{clip-path:url(#SVGID_2_);fill:#BCBEC0;}
	.st1{fill:none;}
	.st2{clip-path:url(#SVGID_4_);fill:#0099CC;}
	.st3{fill:#0099CC;}
	.st4{fill:#2B3990;}
</style>
<g id="gris">
	<g>
		<g>
			<defs>
				<rect id="SVGID_1_" x="28" y="18.5" width="176.5" height="180.3"/>
			</defs>
			<clipPath id="SVGID_2_">
				<use xlink:href="#SVGID_1_" style="overflow:visible;"/>
			</clipPath>
			<path class="st0" d="M96.3,47.9c33.6-10,68.9,9.1,78.9,42.7c10,33.6-9.1,68.9-42.7,78.9c-33.6,10-68.9-9.1-78.9-42.7L28,134.4     c14.2,47.7,64.4,74.9,112.1,60.7c47.7-14.2,74.9-64.4,60.7-112.1C186.5,35.2,136.4,8.1,88.6,22.3L96.3,47.9z"/>
		</g>
	</g>
	<rect x="-105.1" y="-193" class="st1" width="792" height="612"/>
	<rect x="-105.1" y="-193" class="st1" width="792" height="612"/>
	<rect x="-105.1" y="-193" class="st1" width="792" height="612"/>
</g>
<g id="azul_claro">
	<g>
		<g>
			<defs>
				<rect id="SVGID_3_" x="19.5" y="1.2" width="215.8" height="211.2"/>
			</defs>
			<clipPath id="SVGID_4_">
				<use xlink:href="#SVGID_3_" style="overflow:visible;"/>
			</clipPath>
			<path class="st2" d="M158.1,208C101,224.9,41,192.4,24,135.4C7,78.3,39.5,18.2,96.6,1.2l9.1,30.6c-40.2,11.9-63,54.2-51.1,94.4     c11.9,40.2,54.2,63,94.4,51.1c40.2-11.9,63-54.2,51.1-94.4l30.6-9.1C247.7,130.9,215.2,191,158.1,208"/>
		</g>
	</g>
	<rect x="-105.1" y="-193" class="st1" width="792" height="612"/>
	<g>
		<g>
			<path class="st3" d="M267.9,168h5.8v6.5c1.7-2.6,3.6-4.5,5.5-5.7c1.9-1.3,4-1.9,6.1-1.9c1.6,0,3.3,0.5,5.1,1.5l-3,4.8     c-1.2-0.5-2.2-0.8-3-0.8c-1.9,0-3.8,0.8-5.5,2.4c-1.8,1.6-3.1,4-4.1,7.3c-0.7,2.5-1.1,7.7-1.1,15.4v15.1h-5.8V168z"/>
			<path class="st3" d="M342.5,168v44.5h-5.6v-7.7c-2.4,2.9-5.1,5.1-8.1,6.6c-3,1.5-6.3,2.2-9.8,2.2c-6.3,0-11.7-2.3-16.1-6.9     c-4.5-4.6-6.7-10.1-6.7-16.7c0-6.4,2.2-11.9,6.8-16.4c4.5-4.6,9.9-6.8,16.2-6.8c3.7,0,7,0.8,9.9,2.3c3,1.6,5.6,3.9,7.8,7V168     H342.5z M319.6,172.3c-3.2,0-6.1,0.8-8.8,2.4c-2.7,1.6-4.8,3.8-6.4,6.6c-1.6,2.8-2.4,5.8-2.4,9c0,3.1,0.8,6.1,2.4,9     c1.6,2.9,3.8,5.1,6.5,6.7c2.7,1.6,5.6,2.4,8.7,2.4c3.1,0,6.1-0.8,8.9-2.4c2.8-1.6,5-3.7,6.5-6.4c1.5-2.7,2.3-5.7,2.3-9.1     c0-5.1-1.7-9.5-5.1-12.9C328.7,174.1,324.6,172.3,319.6,172.3z"/>
			<path class="st3" d="M363.3,151.4h5.7V168h9.1v5H369v39.6h-5.7v-39.6h-7.8v-5h7.8V151.4z"/>
			<path class="st3" d="M391.6,149.6c1.3,0,2.4,0.5,3.3,1.4c0.9,0.9,1.4,2,1.4,3.4c0,1.3-0.5,2.4-1.4,3.3c-0.9,0.9-2,1.4-3.3,1.4     c-1.3,0-2.4-0.5-3.3-1.4c-0.9-0.9-1.4-2-1.4-3.3c0-1.3,0.5-2.4,1.4-3.4C389.3,150.1,390.4,149.6,391.6,149.6z M388.8,168h5.7     v44.5h-5.7V168z"/>
			<path class="st3" d="M409.3,168h5.7v8c2.3-3.1,4.8-5.3,7.6-6.9c2.8-1.5,5.8-2.3,9.1-2.3c3.3,0,6.3,0.8,8.9,2.5     c2.6,1.7,4.5,4,5.7,6.8c1.2,2.9,1.8,7.3,1.8,13.4v22.9h-5.7v-21.2c0-5.1-0.2-8.5-0.6-10.3c-0.7-2.9-1.9-5.2-3.8-6.6     c-1.9-1.5-4.3-2.2-7.4-2.2c-3.5,0-6.6,1.1-9.3,3.4c-2.7,2.3-4.5,5.1-5.4,8.5c-0.5,2.2-0.8,6.2-0.8,12.1v16.3h-5.7V168z"/>
			<path class="st3" d="M501.7,168h5.7v35.5c0,6.2-0.5,10.8-1.6,13.7c-1.5,4.1-4.1,7.2-7.8,9.4c-3.7,2.2-8.2,3.3-13.4,3.3     c-3.8,0-7.2-0.5-10.3-1.6c-3-1.1-5.5-2.5-7.4-4.3c-1.9-1.8-3.7-4.5-5.3-8h6.2c1.7,2.9,3.9,5.1,6.6,6.5c2.7,1.4,6,2.1,10,2.1     c3.9,0,7.2-0.7,9.9-2.2c2.7-1.5,4.6-3.3,5.8-5.5c1.1-2.2,1.7-5.8,1.7-10.7V204c-2.2,2.7-4.8,4.8-7.9,6.3s-6.4,2.2-9.9,2.2     c-4.1,0-7.9-1-11.5-3c-3.6-2-6.4-4.8-8.4-8.2c-2-3.4-2.9-7.2-2.9-11.3c0-4.1,1-8,3.1-11.5c2-3.6,4.9-6.4,8.5-8.4     c3.6-2.1,7.4-3.1,11.4-3.1c3.3,0,6.4,0.7,9.3,2.1c2.9,1.4,5.7,3.6,8.3,6.8V168z M484.9,172.3c-3.2,0-6.3,0.8-9,2.4     c-2.8,1.6-5,3.7-6.5,6.5c-1.6,2.8-2.4,5.8-2.4,9c0,4.9,1.6,8.9,4.9,12.1c3.3,3.2,7.5,4.8,12.7,4.8c5.3,0,9.5-1.6,12.7-4.7     c3.2-3.2,4.8-7.3,4.8-12.5c0-3.4-0.7-6.3-2.2-9c-1.5-2.6-3.6-4.7-6.3-6.2C490.9,173.1,488,172.3,484.9,172.3z"/>
			<path class="st3" d="M545.1,172.8l-3.7,3.8c-3.1-3-6.1-4.5-9-4.5c-1.9,0-3.5,0.6-4.8,1.8c-1.3,1.2-2,2.7-2,4.3     c0,1.4,0.5,2.8,1.6,4.1c1.1,1.3,3.4,2.9,6.9,4.7c4.3,2.2,7.2,4.3,8.7,6.4c1.5,2.1,2.3,4.4,2.3,7c0,3.7-1.3,6.8-3.9,9.3     c-2.6,2.5-5.8,3.8-9.6,3.8c-2.6,0-5-0.6-7.4-1.7c-2.3-1.1-4.3-2.7-5.8-4.6l3.6-4.1c2.9,3.3,6,4.9,9.3,4.9c2.3,0,4.2-0.7,5.9-2.2     c1.6-1.5,2.4-3.2,2.4-5.2c0-1.6-0.5-3.1-1.6-4.4c-1.1-1.3-3.5-2.8-7.2-4.7c-4-2.1-6.8-4.1-8.2-6.1c-1.4-2-2.2-4.3-2.2-6.9     c0-3.4,1.2-6.2,3.5-8.4c2.3-2.2,5.2-3.4,8.7-3.4C536.8,166.8,540.9,168.8,545.1,172.8z"/>
		</g>
		<rect x="263.6" y="138.2" class="st1" width="255.5" height="93.3"/>
	</g>
	<rect x="-105.1" y="-193" class="st1" width="792" height="612"/>
	<rect x="-105.1" y="-193" class="st1" width="792" height="612"/>
</g>
<g id="azul_oscuro">
	<path class="st4" d="M107.8,183.7c-41.9,0-75.9-34-75.9-75.9c0-41.9,34-75.9,75.9-75.9c41.9,0,75.9,34,75.9,75.9h32   C215.7,48.3,167.4,0,107.8,0C48.3,0,0,48.3,0,107.8c0,59.6,48.3,107.8,107.8,107.8V183.7z"/>
	<rect x="-105.1" y="-193" class="st1" width="792" height="612"/>
	<g>
		<path class="st4" d="M321,128.6c-6.9,3.7-14.8,5.6-23.5,5.6c-17.5,0-30-11.9-30-29.6c0-18.2,12.5-30.1,30-30.1    c8.7,0,16.5,1.8,22.4,7.1l-7.5,7.5c-3.6-3.5-9.2-5.5-14.9-5.5c-11.7,0-19.5,9-19.5,20.3c0,12.1,7.8,21.1,19.5,21.1    c5.1,0,9.8-1,13.3-3v-13.4h-11.6v-9.2H321V128.6z"/>
		<path class="st4" d="M333,75.9h10.1v47.7h24.2v9.2H333V75.9z"/>
		<path class="st4" d="M401.7,74.4c17.8-0.3,30.3,11.6,30.3,29.8c0,17.8-12.5,29.6-30.3,30c-17.5,0-30-11.9-30-29.6    C371.6,86.3,384.1,74.4,401.7,74.4z M401.7,125c11.8,0,19.6-9,19.6-21.1c0-11.3-7.8-20.3-19.6-20.3c-11.7,0-19.5,9-19.5,20.3    C382.2,116,390,125,401.7,125z"/>
		<path class="st4" d="M441.6,75.9h22.2c8.6,0,17.4,3.9,17.4,14.3c0,6.4-4,10.7-9.9,12.4v0.2c7.1,0.8,12.3,6.4,12.3,13.7    c0,12.4-10.8,16.2-21.5,16.2h-20.5V75.9z M451.7,99h9.2c6.7,0,10.1-2.9,10.1-7.1c0-4.9-3.4-7.3-11-7.3h-8.4V99z M451.7,124.1h9.3    c5.2,0,12.5-0.9,12.5-8.4c0-5.9-3.9-8-12-8h-9.7V124.1z"/>
		<path class="st4" d="M512,75.9h8.8l24.5,56.9h-11.6l-5.3-13h-24.7l-5.1,13h-11.3L512,75.9z M524.9,111l-8.8-23.1l-8.9,23.1H524.9z    "/>
		<path class="st4" d="M551.6,75.9h10.1v47.7h24.2v9.2h-34.3V75.9z"/>
	</g>
	<rect x="-105.1" y="-193" class="st1" width="792" height="612"/>
	<rect x="-105.1" y="-193" class="st1" width="792" height="612"/>
</g>
</svg>